<svg xmlns="http://www.w3.org/2000/svg" viewBox="0 0 64 64" role="img" aria-label="Graveyard">
  <defs>
    <linearGradient id="stone" x1="14" x2="48" y1="8" y2="50" gradientUnits="userSpaceOnUse">
      <stop stop-color="#f4df9b"/>
      <stop offset="0.42" stop-color="#d7b46a"/>
      <stop offset="1" stop-color="#7c622f"/>
    </linearGradient>
    <linearGradient id="hand" x1="17" x2="37" y1="28" y2="52" gradientUnits="userSpaceOnUse">
      <stop stop-color="#f8e9b7"/>
      <stop offset="0.54" stop-color="#d7b46a"/>
      <stop offset="1" stop-color="#6d5428"/>
    </linearGradient>
  </defs>
  <path
    d="M37.9 51.6V20.8c0-8.5 5.4-14.3 12.1-14.3s12.1 5.8 12.1 14.3v30.8H37.9Z"
    fill="#070807"
    stroke="#090806"
    stroke-width="5.2"
    stroke-linejoin="round"
  />
  <path
    d="M37.9 51.6V20.8c0-8.5 5.4-14.3 12.1-14.3s12.1 5.8 12.1 14.3v30.8H37.9Z"
    fill="#10100e"
    stroke="url(#stone)"
    stroke-width="2.5"
    stroke-linejoin="round"
  />
  <path
    d="M43.2 25.8h13.6M50 18.6v14"
    fill="none"
    stroke="#d7b46a"
    stroke-linecap="round"
    stroke-width="2.3"
    opacity="0.86"
  />
  <path
    d="M4.5 53.5c7-3.4 14.7-4 22.9-2.5 7.6 1.4 13.5 0.2 19.4-1.2 5.1-1.2 9.6-0.6 13.4 3.7H4.5Z"
    fill="#070807"
    stroke="#d7b46a"
    stroke-linejoin="round"
    stroke-width="1.6"
  />
  <path
    d="M19.7 49.5c-1.8-5.7-3.5-10.2-5.2-13.6-.8-1.6-.2-3.1 1.2-3.6 1.4-.5 2.8.2 3.5 1.7l2.2 5.1V25.7c0-1.8 1.1-3 2.6-3 1.4 0 2.4 1.1 2.5 2.9l.3 12.2 2.1-15.3c.3-1.8 1.5-2.9 3-2.7 1.5.2 2.3 1.6 2.1 3.4L32.3 38l3.3-11.4c.5-1.8 1.8-2.8 3.2-2.4 1.4.4 2 1.8 1.5 3.7l-3.1 12.5 3.7-5.4c1-1.4 2.4-1.8 3.5-.9 1.1.8 1.2 2.3.2 3.7l-8.4 11.8c-3.4 4.7-11.6 4.6-16.5-.1Z"
    fill="url(#hand)"
    stroke="#070807"
    stroke-linejoin="round"
    stroke-width="2.6"
  />
  <path
    d="M21.8 49.4c-1.4-4.8-2.9-9.4-4.7-13.6M26.9 45.1 26.7 27M31 44.4l2-20M35.1 45.2l3.2-15.3"
    fill="none"
    stroke="#fff3c7"
    stroke-linecap="round"
    stroke-width="1.15"
    opacity="0.7"
  />
  <path
    d="M8.5 55.1c8.5-1.6 16.4-1.4 23.5.8 7.5 2.3 16.4 1.7 25.5-.8"
    fill="none"
    stroke="#d7b46a"
    stroke-linecap="round"
    stroke-width="2"
    opacity="0.74"
  />
</svg>
